<?xml version="1.0" encoding="UTF-8" standalone="no"?>
<!-- Created with Inkscape (http://www.inkscape.org/) -->

<svg
   xmlns:dc="http://purl.org/dc/elements/1.1/"
   xmlns:cc="http://creativecommons.org/ns#"
   xmlns:rdf="http://www.w3.org/1999/02/22-rdf-syntax-ns#"
   xmlns:svg="http://www.w3.org/2000/svg"
   xmlns="http://www.w3.org/2000/svg"
   xmlns:sodipodi="http://sodipodi.sourceforge.net/DTD/sodipodi-0.dtd"
   xmlns:inkscape="http://www.inkscape.org/namespaces/inkscape"
   width="300"
   height="300"
   id="svg2"
   version="1.1"
   inkscape:version="0.48.4 r9939"
   sodipodi:docname="player.svg"
   inkscape:export-filename="/home/siege/Projects/LudumDare34/data/player.png"
   inkscape:export-xdpi="90"
   inkscape:export-ydpi="90">
  <defs
     id="defs4" />
  <sodipodi:namedview
     id="base"
     pagecolor="#ffffff"
     bordercolor="#666666"
     borderopacity="1.0"
     inkscape:pageopacity="0.0"
     inkscape:pageshadow="2"
     inkscape:zoom="1.6862699"
     inkscape:cx="150.35088"
     inkscape:cy="169.98524"
     inkscape:document-units="px"
     inkscape:current-layer="layer1"
     showgrid="true"
     inkscape:object-paths="false"
     inkscape:object-nodes="true"
     fit-margin-top="0"
     fit-margin-left="0"
     fit-margin-right="0"
     fit-margin-bottom="0"
     inkscape:window-width="1885"
     inkscape:window-height="1022"
     inkscape:window-x="31"
     inkscape:window-y="-3"
     inkscape:window-maximized="1">
    <inkscape:grid
       type="xygrid"
       id="grid2985"
       empspacing="5"
       visible="true"
       enabled="true"
       snapvisiblegridlinesonly="true"
       originx="-120px"
       originy="-720px" />
  </sodipodi:namedview>
  <metadata
     id="metadata7">
    <rdf:RDF>
      <cc:Work
         rdf:about="">
        <dc:format>image/svg+xml</dc:format>
        <dc:type
           rdf:resource="http://purl.org/dc/dcmitype/StillImage" />
        <dc:title></dc:title>
      </cc:Work>
    </rdf:RDF>
  </metadata>
  <g
     inkscape:label="Layer 1"
     inkscape:groupmode="layer"
     id="layer1"
     transform="translate(-120,-32.362183)">
    <path
       sodipodi:type="arc"
       style="color:#000000;fill:#ffffff;fill-opacity:1;fill-rule:nonzero;stroke:none;stroke-width:30;marker:none;visibility:visible;display:inline;overflow:visible;enable-background:accumulate"
       id="path3016"
       sodipodi:cx="140"
       sodipodi:cy="150"
       sodipodi:rx="150"
       sodipodi:ry="150"
       d="M 290,150 C 290,232.84271 222.84271,300 140,300 57.157288,300 -10,232.84271 -10,150 -10,67.157288 57.157288,0 140,0 222.84271,0 290,67.157288 290,150 z"
       transform="translate(130,32.362183)" />
    <path
       sodipodi:type="arc"
       style="color:#000000;fill:#000000;fill-opacity:1;fill-rule:nonzero;stroke:none;stroke-width:30;marker:none;visibility:visible;display:inline;overflow:visible;enable-background:accumulate"
       id="path3020"
       sodipodi:cx="80"
       sodipodi:cy="100"
       sodipodi:rx="20"
       sodipodi:ry="20"
       d="m 100,100 c 0,11.04569 -8.954305,20 -20,20 -11.045695,0 -20,-8.95431 -20,-20 0,-11.045695 8.954305,-20 20,-20 11.045695,0 20,8.954305 20,20 z"
       transform="matrix(1.5,0,0,1.5,80,-17.637817)" />
    <path
       transform="matrix(1.5,0,0,1.5,220,-17.637817)"
       d="m 100,100 c 0,11.04569 -8.954305,20 -20,20 -11.045695,0 -20,-8.95431 -20,-20 0,-11.045695 8.954305,-20 20,-20 11.045695,0 20,8.954305 20,20 z"
       sodipodi:ry="20"
       sodipodi:rx="20"
       sodipodi:cy="100"
       sodipodi:cx="80"
       id="path3022"
       style="color:#000000;fill:#000000;fill-opacity:1;fill-rule:nonzero;stroke:none;stroke-width:30;marker:none;visibility:visible;display:inline;overflow:visible;enable-background:accumulate"
       sodipodi:type="arc" />
    <path
       style="fill:none;stroke:#000000;stroke-width:32;stroke-linecap:round;stroke-linejoin:miter;stroke-miterlimit:4;stroke-opacity:1;stroke-dasharray:none"
       d="m 180,252.36218 c 95,-95 110,30 205,-55"
       id="path3024"
       inkscape:connector-curvature="0"
       sodipodi:nodetypes="cc" />
  </g>
</svg>
